<mxfile host="www.draw.io" modified="2019-10-31T02:24:02.412Z" agent="Mozilla/5.0 (Windows NT 10.0; Win64; x64) AppleWebKit/537.36 (KHTML, like Gecko) Chrome/77.0.3865.120 Safari/537.36" etag="BjCZijPzuqycot8yFPe0" version="12.1.8" type="github" pages="1">
  <diagram id="4X6jtVIqUVwTG9tQofEE" name="Page-1">
    <mxGraphModel dx="1422" dy="762" grid="1" gridSize="10" guides="1" tooltips="1" connect="1" arrows="1" fold="1" page="1" pageScale="1" pageWidth="826" pageHeight="1169" math="0" shadow="0">
      <root>
        <mxCell id="0"/>
        <mxCell id="1" parent="0"/>
        <mxCell id="8E4gz0dcKP8BS_eoSMyC-3" value="oracle" style="shape=datastore;whiteSpace=wrap;html=1;" vertex="1" parent="1">
          <mxGeometry x="170" y="540" width="60" height="60" as="geometry"/>
        </mxCell>
        <mxCell id="8E4gz0dcKP8BS_eoSMyC-4" value="edb" style="shape=datastore;whiteSpace=wrap;html=1;" vertex="1" parent="1">
          <mxGeometry x="330" y="540" width="60" height="60" as="geometry"/>
        </mxCell>
        <mxCell id="8E4gz0dcKP8BS_eoSMyC-5" value="tibero" style="shape=datastore;whiteSpace=wrap;html=1;" vertex="1" parent="1">
          <mxGeometry x="250" y="540" width="60" height="60" as="geometry"/>
        </mxCell>
        <mxCell id="8E4gz0dcKP8BS_eoSMyC-6" value="pgsql" style="shape=datastore;whiteSpace=wrap;html=1;" vertex="1" parent="1">
          <mxGeometry x="410" y="540" width="60" height="60" as="geometry"/>
        </mxCell>
        <mxCell id="8E4gz0dcKP8BS_eoSMyC-9" value="redis" style="shape=internalStorage;whiteSpace=wrap;html=1;backgroundOutline=1;" vertex="1" parent="1">
          <mxGeometry x="570" y="540" width="60" height="60" as="geometry"/>
        </mxCell>
        <mxCell id="8E4gz0dcKP8BS_eoSMyC-10" value="mysql" style="shape=datastore;whiteSpace=wrap;html=1;" vertex="1" parent="1">
          <mxGeometry x="490" y="540" width="60" height="60" as="geometry"/>
        </mxCell>
        <mxCell id="8E4gz0dcKP8BS_eoSMyC-11" value="adaptor" style="shape=offPageConnector;whiteSpace=wrap;html=1;" vertex="1" parent="1">
          <mxGeometry x="170" y="510" width="60" height="20" as="geometry"/>
        </mxCell>
        <mxCell id="8E4gz0dcKP8BS_eoSMyC-12" value="" style="shape=offPageConnector;whiteSpace=wrap;html=1;" vertex="1" parent="1">
          <mxGeometry x="250" y="510" width="60" height="20" as="geometry"/>
        </mxCell>
        <mxCell id="8E4gz0dcKP8BS_eoSMyC-13" value="" style="shape=offPageConnector;whiteSpace=wrap;html=1;" vertex="1" parent="1">
          <mxGeometry x="330" y="510" width="60" height="20" as="geometry"/>
        </mxCell>
        <mxCell id="8E4gz0dcKP8BS_eoSMyC-14" value="" style="shape=offPageConnector;whiteSpace=wrap;html=1;" vertex="1" parent="1">
          <mxGeometry x="410" y="510" width="60" height="20" as="geometry"/>
        </mxCell>
        <mxCell id="8E4gz0dcKP8BS_eoSMyC-15" value="" style="shape=offPageConnector;whiteSpace=wrap;html=1;" vertex="1" parent="1">
          <mxGeometry x="490" y="510" width="60" height="20" as="geometry"/>
        </mxCell>
        <mxCell id="8E4gz0dcKP8BS_eoSMyC-16" value="" style="shape=offPageConnector;whiteSpace=wrap;html=1;" vertex="1" parent="1">
          <mxGeometry x="570" y="510" width="60" height="20" as="geometry"/>
        </mxCell>
        <mxCell id="8E4gz0dcKP8BS_eoSMyC-17" value="Data Source Layer" style="shape=ext;double=1;rounded=0;whiteSpace=wrap;html=1;" vertex="1" parent="1">
          <mxGeometry x="170" y="470" width="540" height="30" as="geometry"/>
        </mxCell>
        <mxCell id="8E4gz0dcKP8BS_eoSMyC-19" value="hadoop" style="shape=datastore;whiteSpace=wrap;html=1;" vertex="1" parent="1">
          <mxGeometry x="650" y="540" width="60" height="60" as="geometry"/>
        </mxCell>
        <mxCell id="8E4gz0dcKP8BS_eoSMyC-20" value="" style="shape=offPageConnector;whiteSpace=wrap;html=1;" vertex="1" parent="1">
          <mxGeometry x="650" y="510" width="60" height="20" as="geometry"/>
        </mxCell>
        <mxCell id="8E4gz0dcKP8BS_eoSMyC-21" value="data permission&amp;nbsp;" style="shape=ext;double=1;rounded=0;whiteSpace=wrap;html=1;" vertex="1" parent="1">
          <mxGeometry x="170" y="380" width="120" height="80" as="geometry"/>
        </mxCell>
        <mxCell id="8E4gz0dcKP8BS_eoSMyC-22" value="metring" style="shape=ext;double=1;rounded=0;whiteSpace=wrap;html=1;" vertex="1" parent="1">
          <mxGeometry x="310" y="380" width="120" height="80" as="geometry"/>
        </mxCell>
        <mxCell id="8E4gz0dcKP8BS_eoSMyC-24" value="api mapper" style="shape=ext;double=1;rounded=0;whiteSpace=wrap;html=1;" vertex="1" parent="1">
          <mxGeometry x="450" y="380" width="120" height="80" as="geometry"/>
        </mxCell>
        <mxCell id="8E4gz0dcKP8BS_eoSMyC-26" value="owner portal" style="shape=ext;double=1;rounded=0;whiteSpace=wrap;html=1;" vertex="1" parent="1">
          <mxGeometry x="170" y="290" width="120" height="80" as="geometry"/>
        </mxCell>
        <mxCell id="8E4gz0dcKP8BS_eoSMyC-27" value="developer portal" style="shape=ext;double=1;rounded=0;whiteSpace=wrap;html=1;" vertex="1" parent="1">
          <mxGeometry x="310" y="290" width="120" height="80" as="geometry"/>
        </mxCell>
        <mxCell id="8E4gz0dcKP8BS_eoSMyC-28" value="external interface" style="shape=ext;double=1;rounded=0;whiteSpace=wrap;html=1;" vertex="1" parent="1">
          <mxGeometry x="170" y="250" width="540" height="30" as="geometry"/>
        </mxCell>
        <mxCell id="8E4gz0dcKP8BS_eoSMyC-29" value="platform api" style="shape=ext;double=1;rounded=0;whiteSpace=wrap;html=1;" vertex="1" parent="1">
          <mxGeometry x="590" y="380" width="120" height="80" as="geometry"/>
        </mxCell>
        <mxCell id="8E4gz0dcKP8BS_eoSMyC-30" value="admin portal" style="shape=ext;double=1;rounded=0;whiteSpace=wrap;html=1;" vertex="1" parent="1">
          <mxGeometry x="450" y="290" width="120" height="80" as="geometry"/>
        </mxCell>
        <mxCell id="8E4gz0dcKP8BS_eoSMyC-31" value="connected car api" style="shape=ext;double=1;rounded=0;whiteSpace=wrap;html=1;" vertex="1" parent="1">
          <mxGeometry x="590" y="290" width="120" height="80" as="geometry"/>
        </mxCell>
        <mxCell id="8E4gz0dcKP8BS_eoSMyC-33" value="rdb" style="shape=datastore;whiteSpace=wrap;html=1;" vertex="1" parent="1">
          <mxGeometry x="80" y="390" width="60" height="60" as="geometry"/>
        </mxCell>
        <mxCell id="8E4gz0dcKP8BS_eoSMyC-36" value="mem db" style="shape=internalStorage;whiteSpace=wrap;html=1;backgroundOutline=1;" vertex="1" parent="1">
          <mxGeometry x="80" y="300" width="60" height="60" as="geometry"/>
        </mxCell>
      </root>
    </mxGraphModel>
  </diagram>
</mxfile>
